<?xml version="1.0" encoding="iso-8859-1"?>
<!-- Generator: Adobe Illustrator 19.0.0, SVG Export Plug-In . SVG Version: 6.00 Build 0)  -->
<svg version="1.1" id="Layer_1" xmlns="http://www.w3.org/2000/svg" xmlns:xlink="http://www.w3.org/1999/xlink" x="0px" y="0px"
	 viewBox="0 0 278.052 278.052" style="enable-background:new 0 0 278.052 278.052;" xml:space="preserve">
<g>
	<rect x="92.529" y="172.558" style="fill:#13829B;" width="92.995" height="68.656"/>
	<path style="fill:#FFDB77;" d="M139.025,7.5c-49.205,0-89.094,39.889-89.094,89.094c0,32.165,17.047,60.345,42.596,76.009v-0.045
		h92.995v0.045c25.55-15.663,42.596-43.844,42.596-76.009C228.12,47.389,188.232,7.5,139.025,7.5z"/>
	<path style="fill:#28D2E4;" d="M157.671,270.55h-37.29c-4.913,0-9.508-2.429-12.276-6.488l-15.577-22.848h92.995l-15.577,22.848
		C167.18,268.122,162.583,270.55,157.671,270.55z"/>
	<g>
		<path style="fill:#22313F;" d="M235.62,96.594C235.62,43.332,192.288,0,139.025,0S42.432,43.332,42.432,96.594
			c0,32.448,15.847,62.071,42.596,80.088v64.533c0,1.547,0.505,3.053,1.298,4.217c0.002,0.003,0.003,0.005,0.005,0.008
			l15.577,22.848c4.168,6.113,11.074,9.764,18.474,9.764h37.289c7.399,0,14.306-3.65,18.474-9.764l15.577-22.848
			c0.002-0.003,0.003-0.005,0.004-0.008c0.811-1.19,1.298-2.703,1.298-4.217v-64.533C219.773,158.665,235.62,129.041,235.62,96.594z
			 M178.023,180.059v53.656h-77.996v-53.656L178.023,180.059L178.023,180.059z M163.749,259.838
			c-1.371,2.012-3.643,3.213-6.079,3.213h-37.289c-2.436,0-4.708-1.201-6.079-3.213l-7.584-11.123h64.615L163.749,259.838z
			 M183.428,165.059h-32.192l32.98-65.073c1.873-3.694,0.396-8.208-3.299-10.08c-3.693-1.875-8.208-0.395-10.08,3.299
			l-31.811,62.765l-31.81-62.765c-1.872-3.694-6.385-5.171-10.08-3.299c-3.694,1.872-5.172,6.386-3.299,10.08l32.98,65.073H94.624
			c-23.33-15.137-37.192-40.57-37.192-68.465C57.432,51.603,94.035,15,139.025,15s81.594,36.603,81.594,81.594
			C220.62,124.488,206.758,149.922,183.428,165.059z"/>
		<path style="fill:#22313F;" d="M127.693,203.387h22.666c4.143,0,7.5-3.357,7.5-7.5s-3.357-7.5-7.5-7.5h-22.666
			c-4.143,0-7.5,3.357-7.5,7.5C120.193,200.029,123.551,203.387,127.693,203.387z"/>
		<path style="fill:#22313F;" d="M127.693,225.386h22.666c4.143,0,7.5-3.357,7.5-7.5s-3.357-7.5-7.5-7.5h-22.666
			c-4.143,0-7.5,3.357-7.5,7.5C120.193,222.028,123.551,225.386,127.693,225.386z"/>
	</g>
</g>
<g>
</g>
<g>
</g>
<g>
</g>
<g>
</g>
<g>
</g>
<g>
</g>
<g>
</g>
<g>
</g>
<g>
</g>
<g>
</g>
<g>
</g>
<g>
</g>
<g>
</g>
<g>
</g>
<g>
</g>
</svg>
