<?xml version="1.0" encoding="iso-8859-1"?>
<!-- Generator: Adobe Illustrator 19.0.0, SVG Export Plug-In . SVG Version: 6.00 Build 0)  -->
<svg version="1.1" id="Layer_1" xmlns="http://www.w3.org/2000/svg" xmlns:xlink="http://www.w3.org/1999/xlink" x="0px" y="0px"
	 viewBox="0 0 512 512" style="enable-background:new 0 0 512 512;" xml:space="preserve">
<circle style="fill:#FFC200;" cx="248" cy="248" r="248"/>
<g>
	<path style="fill:#F2B800;" d="M248,0c-6.744,0-13.4,0.344-20,0.876C355.592,11.068,456,117.776,456,248
		S355.592,484.932,228,495.124c6.6,0.532,13.256,0.876,20,0.876c136.96,0,248-111.032,248-248S384.96,0,248,0z"/>
	<path style="fill:#F2B800;" d="M121.032,352.928c-4.224-4.764-10.288-7.5-16.66-7.5c-5.448,0-10.692,1.992-14.768,5.604
		c-4.44,3.944-7.084,9.388-7.444,15.32c-0.356,5.936,1.624,11.66,5.572,16.1c40.252,45.408,98.672,71.448,160.276,71.448v-44.524
		C199.116,409.392,152.844,388.812,121.032,352.928z"/>
</g>
<path style="fill:#F5F5F5;" d="M112.7,360.312c-4.076-4.6-11.104-5.028-15.712-0.944c-4.596,4.084-5.02,11.112-0.94,15.712
	c38.144,43.032,93.532,67.708,151.952,67.708v-22.256C195.936,420.524,146.624,398.58,112.7,360.312z"/>
<g>
	<path style="fill:#263740;" d="M196,196c-6.624,0-12-5.376-12-12c0-19.852-16.148-36-36-36s-36,16.148-36,36
		c0,6.624-5.376,12-12,12s-12-5.376-12-12c0-33.084,26.916-60,60-60s60,26.916,60,60C208,190.624,202.624,196,196,196z"/>
	<path style="fill:#263740;" d="M396,196c-6.624,0-12-5.376-12-12c0-19.852-16.148-36-36-36s-36,16.148-36,36
		c0,6.624-5.376,12-12,12s-12-5.376-12-12c0-33.084,26.916-60,60-60s60,26.916,60,60C408,190.624,402.624,196,396,196z"/>
</g>
<path style="fill:#455C91;" d="M264,512c-17.644,0-32-14.016-32-31.66v-108c0-17.644,14.356-32,32-32h35.892
	c6.196,0,12.22,1.84,17.336,5.152c1.196-2.76,2.376-6.052,3.828-10.132c3.228-9.132,7.228-20.412,14.944-35.056v-38.22l4.436-4.636
	C348.608,248.9,359.9,244,371.4,244c13.696,0,26.092,6.724,34.016,18.436c7.584,11.22,14.096,31.436,4.888,65.524H472
	c18.916,0,40,16.952,40,41.272c0,9.72-1.468,17.66-4.368,23.696c2.68,10.86,2.048,25.72-7.276,37.62
	c0.076,15.884-4.588,27.748-14.184,36.084c-1.236,9.052-5.304,18.028-11.48,25.096c-7.088,8.128-16.084,12.6-25.3,12.6H327.416
	c-2.032,0-4-0.156-5.88-0.468C315.672,509.304,308.14,512,300,512H264z"/>
<path style="fill:#F5F5F5;" d="M315.892,371.936c20.62-14.48,15.484-30.08,36.108-67.596c0-17.908,0-26.208,0-35.832
	c20.628-21.556,68-4.168,36,75.452h84c10.08,0,24,9.788,24,25.272c0,10.776-2.336,19.724-6.736,20.732
	c4.4,6.6,7.252,24.312-5.196,34.484c1.048,12.912-0.244,26.6-13.696,33.72c1.772,12.924-9.068,30.172-20.984,30.172
	c-11.924,0-113.164,0-121.984,0s-11.524-4.108-11.524-10.956V371.936H315.892z"/>
<g>
	<path style="fill:#E6E6E6;" d="M368.108,343.96H388c27.772-69.1-4.236-91.304-26.66-81.888
		C377.256,269.12,387.972,294.548,368.108,343.96z"/>
	<path style="fill:#E6E6E6;" d="M496,369.24c0-15.488-13.92-25.272-24-25.272h-19.892c10.08,0,24,9.788,24,25.272
		c0,10.776-2.336,19.724-6.728,20.732c4.392,6.6,7.252,24.312-5.2,34.484c1.052,12.912-0.248,26.6-13.696,33.72
		c1.768,12.928-9.068,30.172-20.988,30.172c9.812,0,17.176,0,19.892,0c11.916,0,22.756-17.244,20.984-30.172
		c13.452-7.112,14.744-20.808,13.696-33.72c12.448-10.172,9.588-27.884,5.196-34.484C493.664,388.956,496,380.016,496,369.24z"/>
</g>
<path style="fill:#6E7FB3;" d="M315.892,480.34c0,8.8-7.204,16-16,16H264c-8.8,0-16-7.2-16-16v-108c0-8.8,7.2-16,16-16h35.892
	c8.796,0,16,7.2,16,16V480.34z"/>
<g>
</g>
<g>
</g>
<g>
</g>
<g>
</g>
<g>
</g>
<g>
</g>
<g>
</g>
<g>
</g>
<g>
</g>
<g>
</g>
<g>
</g>
<g>
</g>
<g>
</g>
<g>
</g>
<g>
</g>
</svg>
